<?xml version="1.0" encoding="UTF-8" standalone="no"?>
<svg
   xmlns:dc="http://purl.org/dc/elements/1.1/"
   xmlns:cc="http://creativecommons.org/ns#"
   xmlns:rdf="http://www.w3.org/1999/02/22-rdf-syntax-ns#"
   xmlns:svg="http://www.w3.org/2000/svg"
   xmlns="http://www.w3.org/2000/svg"
   xmlns:sodipodi="http://sodipodi.sourceforge.net/DTD/sodipodi-0.dtd"
   xmlns:inkscape="http://www.inkscape.org/namespaces/inkscape"
   version="1.1"
   viewBox="0 0 309.0394 309.0394"
   stroke-miterlimit="10"
   id="svg89"
   sodipodi:docname="logo.svg"
   inkscape:version="0.92.3 (unknown)"
   width="81.766678mm"
   height="81.76667mm"
   style="fill:none;stroke:none;stroke-linecap:square;stroke-miterlimit:10">
  <metadata
     id="metadata95">
    <rdf:RDF>
      <cc:Work
         rdf:about="">
        <dc:format>image/svg+xml</dc:format>
        <dc:type
           rdf:resource="http://purl.org/dc/dcmitype/StillImage" />
        <dc:title></dc:title>
      </cc:Work>
    </rdf:RDF>
  </metadata>
  <defs
     id="defs93" />
  <sodipodi:namedview
     pagecolor="#ffffff"
     bordercolor="#666666"
     borderopacity="1"
     objecttolerance="10"
     gridtolerance="10"
     guidetolerance="10"
     inkscape:pageopacity="0"
     inkscape:pageshadow="2"
     inkscape:window-width="1920"
     inkscape:window-height="1005"
     id="namedview91"
     showgrid="false"
     inkscape:pagecheckerboard="true"
     inkscape:zoom="1.6083333"
     inkscape:cx="62.359552"
     inkscape:cy="206.9479"
     inkscape:window-x="0"
     inkscape:window-y="26"
     inkscape:window-maximized="1"
     inkscape:current-layer="g87"
     fit-margin-top="0"
     fit-margin-left="0"
     fit-margin-right="0"
     fit-margin-bottom="0"
     units="mm" />
  <clipPath
     id="g480a788c43_2_0.0">
    <path
       d="M 0,0 H 960 V 540 H 0 Z"
       id="path2"
       inkscape:connector-curvature="0"
       style="clip-rule:nonzero" />
  </clipPath>
  <g
     clip-path="url(#g480a788c43_2_0.0)"
     id="g87"
     transform="translate(-325.48032,-114.70874)">
    <path
       d="m 327.48032,269.22842 v 0 c 0,-84.2343 68.2854,-152.51968 152.51968,-152.51968 v 0 c 40.45074,0 79.24469,16.06899 107.84772,44.67197 28.60297,28.603 44.672,67.39697 44.672,107.84772 v 0 c 0,84.23428 -68.2854,152.51968 -152.51971,152.51968 v 0 c -84.23428,0 -152.51968,-68.2854 -152.51968,-152.51968 z"
       id="path7"
       inkscape:connector-curvature="0"
       style="fill:#ffffff;fill-rule:evenodd" />
    <path
       d="m 327.48032,269.22842 v 0 c 0,-84.2343 68.2854,-152.51968 152.51968,-152.51968 v 0 c 40.45074,0 79.24469,16.06899 107.84772,44.67197 28.60297,28.603 44.672,67.39697 44.672,107.84772 v 0 c 0,84.23428 -68.2854,152.51968 -152.51971,152.51968 v 0 c -84.23428,0 -152.51968,-68.2854 -152.51968,-152.51968 z"
       id="path9"
       inkscape:connector-curvature="0"
       style="fill-rule:evenodd;stroke:#000000;stroke-width:4;stroke-linecap:butt;stroke-linejoin:round" />
    <path
       d="M 388.3268,217.04718 V 322.74795"
       id="path11"
       inkscape:connector-curvature="0"
       style="fill:#000000;fill-opacity:0;fill-rule:evenodd" />
    <path
       d="m 388.3268,217.04718 v 81.70077"
       id="path13"
       inkscape:connector-curvature="0"
       style="fill-rule:evenodd;stroke:#000000;stroke-width:4;stroke-linecap:butt;stroke-linejoin:round" />
    <path
       d="m 381.71988,298.748 6.60693,18.15237 6.60694,-18.15237 z"
       id="path15"
       inkscape:connector-curvature="0"
       style="fill:#000000;fill-rule:evenodd;stroke:#000000;stroke-width:4;stroke-linecap:butt" />
    <path
       d="m 480.00012,285.7644 v 36.97638"
       id="path17"
       inkscape:connector-curvature="0"
       style="fill:#000000;fill-opacity:0;fill-rule:evenodd" />
    <path
       d="m 480.00012,285.7644 v 12.97638"
       id="path19"
       inkscape:connector-curvature="0"
       style="fill-rule:evenodd;stroke:#000000;stroke-width:4;stroke-linecap:butt;stroke-linejoin:round" />
    <path
       d="m 473.3932,298.74078 6.60693,18.15237 6.60694,-18.15237 z"
       id="path21"
       inkscape:connector-curvature="0"
       style="fill:#000000;fill-rule:evenodd;stroke:#000000;stroke-width:4;stroke-linecap:butt" />
    <path
       d="m 571.67236,285.76965 v 36.97638"
       id="path23"
       inkscape:connector-curvature="0"
       style="fill:#000000;fill-opacity:0;fill-rule:evenodd" />
    <path
       d="m 571.67236,285.76965 v 12.97638"
       id="path25"
       inkscape:connector-curvature="0"
       style="fill-rule:evenodd;stroke:#000000;stroke-width:4;stroke-linecap:butt;stroke-linejoin:round" />
    <path
       d="m 565.0654,298.74603 6.60693,18.15237 6.60694,-18.15237 z"
       id="path27"
       inkscape:connector-curvature="0"
       style="fill:#000000;fill-rule:evenodd;stroke:#000000;stroke-width:4;stroke-linecap:butt" />
    <path
       d="m 509.99896,201.17316 c -14.99213,0 -29.98425,26.4252 -29.98425,52.8504"
       id="path29"
       inkscape:connector-curvature="0"
       style="fill:#000000;fill-opacity:0;fill-rule:evenodd" />
    <path
       d="m 509.99896,201.17317 c -7.49606,0 -14.99213,6.60629 -20.61417,16.51575 -1.40551,2.47735 -2.69387,5.16116 -3.83587,7.99981 -0.57099,1.41933 -1.10535,2.87735 -1.59949,4.36763 l -0.0907,0.27706"
       id="path31"
       inkscape:connector-curvature="0"
       style="fill-rule:evenodd;stroke:#000000;stroke-width:4;stroke-linecap:butt;stroke-linejoin:round" />
    <path
       d="m 477.33713,229.27519 3.6142,18.97626 9.42904,-16.85984 z"
       id="path33"
       inkscape:connector-curvature="0"
       style="fill:#000000;fill-rule:evenodd;stroke:#000000;stroke-width:4;stroke-linecap:butt" />
    <path
       d="m 541.684,201.17316 c 14.99213,0 29.98425,26.4252 29.98425,52.8504"
       id="path35"
       inkscape:connector-curvature="0"
       style="fill:#000000;fill-opacity:0;fill-rule:evenodd" />
    <path
       d="m 541.684,201.17317 c 7.49603,0 14.99213,6.60629 20.6142,16.51575 1.40545,2.47735 2.69384,5.16116 3.83581,7.99981 0.57105,1.41933 1.10541,2.87735 1.59955,4.36763 l 0.0906,0.27706"
       id="path37"
       inkscape:connector-curvature="0"
       style="fill-rule:evenodd;stroke:#000000;stroke-width:4;stroke-linecap:butt;stroke-linejoin:round" />
    <path
       d="m 561.3026,231.39162 9.42908,16.85983 3.61419,-18.97625 z"
       id="path39"
       inkscape:connector-curvature="0"
       style="fill:#000000;fill-rule:evenodd;stroke:#000000;stroke-width:4;stroke-linecap:butt" />
    <path
       d="m 404.1693,201.17316 c 32.31497,0 64.62994,28.74016 64.62994,57.48032"
       id="path41"
       inkscape:connector-curvature="0"
       style="fill:#000000;fill-opacity:0;fill-rule:evenodd" />
    <path
       d="m 404.16934,201.17317 c 16.15747,0 32.31494,7.18503 44.43307,17.9626 3.02952,2.69438 5.80658,5.61331 8.26807,8.70064 1.23074,1.54365 2.3826,3.12941 3.44766,4.75024 0.53254,0.81043 1.04337,1.62961 1.53156,2.45671 l 0.31702,0.54479"
       id="path43"
       inkscape:connector-curvature="0"
       style="fill-rule:evenodd;stroke:#000000;stroke-width:4;stroke-linecap:butt;stroke-linejoin:round" />
    <path
       d="m 455.8171,237.41402 11.36612,15.61958 1.33313,-19.27131 z"
       id="path45"
       inkscape:connector-curvature="0"
       style="fill:#000000;fill-rule:evenodd;stroke:#000000;stroke-width:4;stroke-linecap:butt" />
    <path
       d="m 404.1693,338.6076 c 32.31497,0 64.62994,-28.74014 64.62994,-57.48032"
       id="path47"
       inkscape:connector-curvature="0"
       style="fill:#000000;fill-opacity:0;fill-rule:evenodd" />
    <path
       d="m 404.16934,338.6076 c 16.15747,0 32.31494,-7.18503 44.43307,-17.96259 3.02952,-2.69439 5.80658,-5.61331 8.26807,-8.70062 1.23074,-1.54367 2.3826,-3.12942 3.44766,-4.75027 0.53254,-0.81043 1.04337,-1.62961 1.53156,-2.45673 l 0.31702,-0.54477"
       id="path49"
       inkscape:connector-curvature="0"
       style="fill-rule:evenodd;stroke:#000000;stroke-width:4;stroke-linecap:butt;stroke-linejoin:round" />
    <path
       d="m 468.51636,306.0185 -1.33313,-19.27133 -11.36612,15.6196 z"
       id="path51"
       inkscape:connector-curvature="0"
       style="fill:#000000;fill-rule:evenodd;stroke:#000000;stroke-width:4;stroke-linecap:butt" />
    <path
       d="m 555.82983,269.89563 h -60"
       id="path53"
       inkscape:connector-curvature="0"
       style="fill:#000000;fill-opacity:0;fill-rule:evenodd" />
    <path
       d="m 555.82983,269.89563 h -36"
       id="path55"
       inkscape:connector-curvature="0"
       style="fill-rule:evenodd;stroke:#000000;stroke-width:4;stroke-linecap:butt;stroke-linejoin:round" />
    <path
       d="m 519.82983,263.2887 -18.15237,6.60693 18.15237,6.60694 z"
       id="path57"
       inkscape:connector-curvature="0"
       style="fill:#000000;fill-rule:evenodd;stroke:#000000;stroke-width:4;stroke-linecap:butt" />
    <path
       d="m 372.48428,201.17316 v 0 c 0,-8.76697 7.09293,-15.87401 15.84253,-15.87401 v 0 c 4.20169,0 8.23129,1.67243 11.20233,4.64939 2.97107,2.97695 4.64017,7.01457 4.64017,11.22462 v 0 c 0,8.76698 -7.09293,15.87402 -15.8425,15.87402 v 0 c -8.7496,0 -15.84253,-7.10704 -15.84253,-15.87402 z"
       id="path59"
       inkscape:connector-curvature="0"
       style="fill:#bf9000;fill-rule:evenodd" />
    <path
       d="m 372.48428,201.17316 v 0 c 0,-8.76697 7.09293,-15.87401 15.84253,-15.87401 v 0 c 4.20169,0 8.23129,1.67243 11.20233,4.64939 2.97107,2.97695 4.64017,7.01457 4.64017,11.22462 v 0 c 0,8.76698 -7.09293,15.87402 -15.8425,15.87402 v 0 c -8.7496,0 -15.84253,-7.10704 -15.84253,-15.87402 z"
       id="path61"
       inkscape:connector-curvature="0"
       style="fill-rule:evenodd;stroke:#000000;stroke-width:4;stroke-linecap:butt;stroke-linejoin:round" />
    <path
       d="m 372.48428,338.6076 v 0 c 0,-8.76697 7.09293,-15.87402 15.84253,-15.87402 v 0 c 4.20169,0 8.23129,1.67245 11.20233,4.64941 2.97107,2.97696 4.64017,7.01456 4.64017,11.22461 v 0 c 0,8.767 -7.09293,15.87402 -15.8425,15.87402 v 0 c -8.7496,0 -15.84253,-7.10702 -15.84253,-15.87402 z"
       id="path63"
       inkscape:connector-curvature="0"
       style="fill:#bf9000;fill-rule:evenodd" />
    <path
       d="m 372.48428,338.6076 v 0 c 0,-8.76697 7.09293,-15.87402 15.84253,-15.87402 v 0 c 4.20169,0 8.23129,1.67245 11.20233,4.64941 2.97107,2.97696 4.64017,7.01456 4.64017,11.22461 v 0 c 0,8.767 -7.09293,15.87402 -15.8425,15.87402 v 0 c -8.7496,0 -15.84253,-7.10702 -15.84253,-15.87402 z"
       id="path65"
       inkscape:connector-curvature="0"
       style="fill-rule:evenodd;stroke:#000000;stroke-width:4;stroke-linecap:butt;stroke-linejoin:round" />
    <path
       d="m 464.1576,269.89038 v 0 c 0,-8.76697 7.09296,-15.87401 15.84253,-15.87401 v 0 c 4.20169,0 8.23129,1.67244 11.20236,4.6494 2.97104,2.97696 4.64017,7.01456 4.64017,11.22461 v 0 c 0,8.76697 -7.09296,15.87402 -15.84253,15.87402 v 0 c -8.74957,0 -15.84253,-7.10705 -15.84253,-15.87402 z"
       id="path67"
       inkscape:connector-curvature="0"
       style="fill:#bf9000;fill-rule:evenodd" />
    <path
       d="m 464.1576,269.89038 v 0 c 0,-8.76697 7.09296,-15.87401 15.84253,-15.87401 v 0 c 4.20169,0 8.23129,1.67244 11.20236,4.6494 2.97104,2.97696 4.64017,7.01456 4.64017,11.22461 v 0 c 0,8.76697 -7.09296,15.87402 -15.84253,15.87402 v 0 c -8.74957,0 -15.84253,-7.10705 -15.84253,-15.87402 z"
       id="path69"
       inkscape:connector-curvature="0"
       style="fill-rule:evenodd;stroke:#000000;stroke-width:4;stroke-linecap:butt;stroke-linejoin:round" />
    <path
       d="m 509.99896,201.17316 v 0 c 0,-8.76697 7.09296,-15.87401 15.84253,-15.87401 v 0 c 4.20172,0 8.23132,1.67243 11.20233,4.64939 2.97107,2.97695 4.6402,7.01457 4.6402,11.22462 v 0 c 0,8.76698 -7.09296,15.87402 -15.84253,15.87402 v 0 c -8.74957,0 -15.84253,-7.10704 -15.84253,-15.87402 z"
       id="path71"
       inkscape:connector-curvature="0"
       style="fill:#bf9000;fill-rule:evenodd" />
    <path
       d="m 509.99896,201.17316 v 0 c 0,-8.76697 7.09296,-15.87401 15.84253,-15.87401 v 0 c 4.20172,0 8.23132,1.67243 11.20233,4.64939 2.97107,2.97695 4.6402,7.01457 4.6402,11.22462 v 0 c 0,8.76698 -7.09296,15.87402 -15.84253,15.87402 v 0 c -8.74957,0 -15.84253,-7.10704 -15.84253,-15.87402 z"
       id="path73"
       inkscape:connector-curvature="0"
       style="fill-rule:evenodd;stroke:#000000;stroke-width:4;stroke-linecap:butt;stroke-linejoin:round" />
    <path
       d="m 555.82983,269.89563 v 0 c 0,-8.76697 7.09296,-15.87401 15.84253,-15.87401 v 0 c 4.20172,0 8.23132,1.67244 11.20233,4.6494 2.97107,2.97696 4.6402,7.01456 4.6402,11.22461 v 0 c 0,8.76697 -7.09296,15.87402 -15.84253,15.87402 v 0 c -8.74957,0 -15.84253,-7.10705 -15.84253,-15.87402 z"
       id="path75"
       inkscape:connector-curvature="0"
       style="fill:#bf9000;fill-rule:evenodd" />
    <path
       d="m 555.82983,269.89563 v 0 c 0,-8.76697 7.09296,-15.87401 15.84253,-15.87401 v 0 c 4.20172,0 8.23132,1.67244 11.20233,4.6494 2.97107,2.97696 4.6402,7.01456 4.6402,11.22461 v 0 c 0,8.76697 -7.09296,15.87402 -15.84253,15.87402 v 0 c -8.74957,0 -15.84253,-7.10705 -15.84253,-15.87402 z"
       id="path77"
       inkscape:connector-curvature="0"
       style="fill-rule:evenodd;stroke:#000000;stroke-width:4;stroke-linecap:butt;stroke-linejoin:round" />
    <path
       d="m 464.1576,338.6076 v 0 c 0,-8.76697 7.09296,-15.87402 15.84253,-15.87402 v 0 c 4.20169,0 8.23129,1.67245 11.20236,4.64941 2.97104,2.97696 4.64017,7.01456 4.64017,11.22461 v 0 c 0,8.767 -7.09296,15.87402 -15.84253,15.87402 v 0 c -8.74957,0 -15.84253,-7.10702 -15.84253,-15.87402 z"
       id="path79"
       inkscape:connector-curvature="0"
       style="fill:#bf9000;fill-rule:evenodd" />
    <path
       d="m 464.1576,338.6076 v 0 c 0,-8.76697 7.09296,-15.87402 15.84253,-15.87402 v 0 c 4.20169,0 8.23129,1.67245 11.20236,4.64941 2.97104,2.97696 4.64017,7.01456 4.64017,11.22461 v 0 c 0,8.767 -7.09296,15.87402 -15.84253,15.87402 v 0 c -8.74957,0 -15.84253,-7.10702 -15.84253,-15.87402 z"
       id="path81"
       inkscape:connector-curvature="0"
       style="fill-rule:evenodd;stroke:#000000;stroke-width:4;stroke-linecap:butt;stroke-linejoin:round" />
    <path
       d="m 555.82983,338.6076 v 0 c 0,-8.76697 7.09296,-15.87402 15.84253,-15.87402 v 0 c 4.20172,0 8.23132,1.67245 11.20233,4.64941 2.97107,2.97696 4.6402,7.01456 4.6402,11.22461 v 0 c 0,8.767 -7.09296,15.87402 -15.84253,15.87402 v 0 c -8.74957,0 -15.84253,-7.10702 -15.84253,-15.87402 z"
       id="path83"
       inkscape:connector-curvature="0"
       style="fill:#bf9000;fill-rule:evenodd" />
    <path
       d="m 555.82983,338.6076 v 0 c 0,-8.76697 7.09296,-15.87402 15.84253,-15.87402 v 0 c 4.20172,0 8.23132,1.67245 11.20233,4.64941 2.97107,2.97696 4.6402,7.01456 4.6402,11.22461 v 0 c 0,8.767 -7.09296,15.87402 -15.84253,15.87402 v 0 c -8.74957,0 -15.84253,-7.10702 -15.84253,-15.87402 z"
       id="path85"
       inkscape:connector-curvature="0"
       style="fill-rule:evenodd;stroke:#000000;stroke-width:4;stroke-linecap:butt;stroke-linejoin:round" />
  </g>
</svg>
